<svg width="1440" height="1024" viewBox="0 0 1440 1024" fill="none" xmlns="http://www.w3.org/2000/svg">
<g opacity="0.5">
<path d="M1440 -0.000126556H-0.00171276V1024H1440V-0.000126556Z" stroke="#B3B3B3"/>
<path d="M1355.19 60.3116H84.8116V963.689H1355.19V60.3116Z" stroke="#B3B3B3"/>
<path d="M1283.42 111.344H156.577V912.656H1283.42V111.344Z" stroke="#B3B3B3"/>
<path d="M1224.71 153.099H215.293V870.902H1224.71V153.099Z" stroke="#B3B3B3"/>
<path d="M1179.04 185.574H260.962V838.426H1179.04V185.574Z" stroke="#B3B3B3"/>
<path d="M1126.84 222.689H313.155V801.311H1126.84V222.689Z" stroke="#B3B3B3"/>
<path d="M319.679 796.672L-0.00121271 1024" stroke="#B3B3B3"/>
<path d="M434.056 796.672L233.188 1024" stroke="#B3B3B3"/>
<path d="M548.434 796.672L436.573 1024" stroke="#B3B3B3"/>
<path d="M662.811 796.672L626.792 1024" stroke="#B3B3B3"/>
<path d="M777.188 796.672L813.207 1024" stroke="#B3B3B3"/>
<path d="M891.565 796.672L1003.43 1024" stroke="#B3B3B3"/>
<path d="M1005.94 796.672L1206.81 1024" stroke="#B3B3B3"/>
<path d="M1120.32 796.672L1440 1024" stroke="#B3B3B3"/>
<path d="M319.679 227.328L-0.0010296 0.000160962" stroke="#B3B3B3"/>
<path d="M319.679 308.663L-0.00108716 165.823" stroke="#B3B3B3"/>
<path d="M319.679 389.998L-0.00109176 310.452" stroke="#B3B3B3"/>
<path d="M319.679 471.332L-0.00120661 445.719" stroke="#B3B3B3"/>
<path d="M319.679 552.667L-0.00120661 578.281" stroke="#B3B3B3"/>
<path d="M319.679 634.002L-0.00109176 713.548" stroke="#B3B3B3"/>
<path d="M319.679 715.337L-0.00120923 858.177" stroke="#B3B3B3"/>
<path d="M319.679 796.672L-0.00115167 1024" stroke="#B3B3B3"/>
<path d="M1120.32 227.328L1440 0.000298291" stroke="#B3B3B3"/>
<path d="M1005.94 227.328L1206.81 0.000263478" stroke="#B3B3B3"/>
<path d="M891.566 227.328L1003.43 0.000347604" stroke="#B3B3B3"/>
<path d="M777.188 227.328L813.207 0.000293603" stroke="#B3B3B3"/>
<path d="M662.811 227.328L626.792 0.000293603" stroke="#B3B3B3"/>
<path d="M548.434 227.328L436.573 0.000347604" stroke="#B3B3B3"/>
<path d="M434.056 227.328L233.188 0.000263478" stroke="#B3B3B3"/>
<path d="M319.679 227.328L-0.000877017 0.000298291" stroke="#B3B3B3"/>
<path d="M1120.32 796.672L1440 1024" stroke="#B3B3B3"/>
<path d="M1120.32 715.337L1440 858.177" stroke="#B3B3B3"/>
<path d="M1120.32 634.003L1440 713.548" stroke="#B3B3B3"/>
<path d="M1120.32 552.668L1440 578.281" stroke="#B3B3B3"/>
<path d="M1120.32 471.333L1440 445.719" stroke="#B3B3B3"/>
<path d="M1120.32 389.998L1440 310.453" stroke="#B3B3B3"/>
<path d="M1120.32 308.663L1440 165.824" stroke="#B3B3B3"/>
<path d="M1120.32 227.328L1440 0.000267774" stroke="#B3B3B3"/>
</g>
</svg>
